<?xml version="1.0" encoding="UTF-8"?>
<svg id="Layer_2" data-name="Layer 2" xmlns="http://www.w3.org/2000/svg" viewBox="0 0 51.66 51.66">
  <defs>
    <style>
      .cls-1 {
        fill: #37f9e2;
        stroke-width: 0px;
      }
    </style>
  </defs>
  <g id="Artwork">
    <g>
      <path class="cls-1" d="M25.83,0C11.56,0,0,11.56,0,25.83s11.56,25.83,25.83,25.83c14.26-.01,25.82-11.57,25.83-25.83C51.66,11.56,40.1,0,25.83,0ZM25.83,47.97c-12.23,0-22.14-9.91-22.14-22.14S13.6,3.69,25.83,3.69c12.22.01,22.13,9.92,22.14,22.14,0,12.23-9.91,22.14-22.14,22.14Z"/>
      <path class="cls-1" d="M25.83,7.38C15.64,7.38,7.38,15.64,7.38,25.83s8.26,18.45,18.45,18.45c10.18-.01,18.44-8.27,18.45-18.45,0-10.19-8.26-18.45-18.45-18.45ZM25.83,40.59c-8.15,0-14.76-6.61-14.76-14.76s6.61-14.76,14.76-14.76c8.15,0,14.75,6.61,14.76,14.76,0,8.15-6.61,14.76-14.76,14.76Z"/>
      <path class="cls-1" d="M33.67,23.48l-2.12-1.15c-.93-.51-1.7-1.27-2.21-2.2l-1.16-2.12c-.25-.44-.61-.81-1.06-1.06-1.29-.71-2.92-.24-3.63,1.06l-1.16,2.11c-.51.93-1.28,1.69-2.21,2.2l-2.12,1.15c-.45.25-.83.62-1.07,1.07-.7,1.3-.22,2.92,1.07,3.62l2.12,1.15c.93.51,1.7,1.27,2.21,2.2l1.16,2.12c.47.85,1.37,1.39,2.34,1.39s1.87-.53,2.34-1.39l1.16-2.11c.51-.93,1.28-1.69,2.21-2.2l2.12-1.15c.45-.25.83-.62,1.07-1.07.7-1.3.22-2.92-1.07-3.62h0ZM29.77,26.09c-1.55.84-2.82,2.11-3.67,3.66l-.27.49-.27-.49c-.85-1.55-2.13-2.82-3.68-3.66l-.48-.26.48-.26c1.55-.84,2.82-2.11,3.67-3.66l.27-.49.27.49c.85,1.55,2.13,2.82,3.68,3.66l.48.26-.49.26Z"/>
    </g>
  </g>
</svg>