<?xml version="1.0" encoding="UTF-8"?>
<svg id="Layer_2" data-name="Layer 2" xmlns="http://www.w3.org/2000/svg" viewBox="0 0 57.64 58.02">
  <defs>
    <style>
      .cls-1 {
        fill: #37f9e2;
        stroke-width: 0px;
      }
    </style>
  </defs>
  <g id="Artwork">
    <g>
      <path class="cls-1" d="M43.31,22.99l-13.74-7.85c-.47-.27-1.05-.27-1.52,0l-13.73,7.85c-.48.27-.77.78-.77,1.33v13.85c0,.55.29,1.05.77,1.33l13.73,7.86c.24.13.5.2.76.2s.52-.07.76-.2l13.74-7.86c.48-.27.77-.78.77-1.33v-13.85c0-.55-.29-1.05-.77-1.33M27.29,43.4l-10.68-6.11v-10.33l10.68,6.11v10.34ZM28.82,30.41l-10.66-6.1,10.66-6.1,10.67,6.1-10.66,6.1ZM41.03,37.28l-10.69,6.11v-10.33l10.69-6.11v10.33Z"/>
      <path class="cls-1" d="M53.17,37.66v-18.62c0-.55-.29-1.05-.77-1.33l-17.8-10.17c.13-.49.21-1.01.21-1.55,0-3.3-2.69-5.99-5.99-5.99s-5.99,2.69-5.99,5.99c0,.54.08,1.05.21,1.55L5.24,17.71c-.48.27-.77.78-.77,1.33v18.62c-2.57.68-4.47,3.01-4.47,5.79,0,3.3,2.69,5.99,5.99,5.99,1.67,0,3.18-.69,4.27-1.79l17.8,10.18c.24.13.5.2.76.2s.52-.07.76-.2l17.8-10.18c1.09,1.11,2.6,1.79,4.27,1.79,3.3,0,5.99-2.69,5.99-5.99,0-2.78-1.9-5.11-4.47-5.79M28.82,3.05c1.62,0,2.94,1.32,2.94,2.94s-1.32,2.94-2.94,2.94-2.94-1.32-2.94-2.94,1.32-2.94,2.94-2.94M5.99,46.39c-1.62,0-2.94-1.32-2.94-2.94s1.32-2.94,2.94-2.94,2.94,1.32,2.94,2.94-1.32,2.94-2.94,2.94M45.65,43.45c0,.53.08,1.05.21,1.55l-17.04,9.74-17.04-9.74c.13-.49.21-1.01.21-1.55,0-2.78-1.9-5.11-4.46-5.79v-17.74l17.03-9.73c1.09,1.11,2.6,1.79,4.27,1.79s3.18-.69,4.27-1.79l17.03,9.73v17.74c-2.56.68-4.46,3.01-4.46,5.79M51.65,46.39c-1.62,0-2.94-1.32-2.94-2.94s1.32-2.94,2.94-2.94,2.94,1.32,2.94,2.94-1.32,2.94-2.94,2.94"/>
    </g>
  </g>
</svg>