<?xml version="1.0" encoding="UTF-8"?>
<svg id="Layer_2" data-name="Layer 2" xmlns="http://www.w3.org/2000/svg" viewBox="0 0 32.67 24.77">
  <defs>
    <style>
      .cls-1 {
        fill: #fff;
        stroke-width: 0px;
      }
    </style>
  </defs>
  <g id="Artwork">
    <path id="Discord-Symbol-White" class="cls-1" d="M20.94,0c-.32.57-.61,1.15-.87,1.75-2.48-.37-5-.37-7.48,0-.25-.6-.55-1.19-.87-1.75-2.33.4-4.59,1.09-6.74,2.08C.72,8.39-.44,14.54.14,20.61c2.5,1.84,5.29,3.25,8.27,4.15.67-.9,1.26-1.86,1.77-2.85-.96-.36-1.9-.81-2.79-1.33.23-.17.46-.35.68-.51,5.23,2.46,11.29,2.46,16.53,0,.22.18.45.36.68.51-.89.53-1.82.97-2.8,1.34.51,1,1.1,1.95,1.77,2.85,2.98-.9,5.77-2.3,8.27-4.14.68-7.04-1.16-13.14-4.85-18.54C25.54,1.1,23.27.4,20.94.01h0ZM10.91,16.88c-1.61,0-2.95-1.46-2.95-3.26s1.28-3.27,2.94-3.27,2.97,1.47,2.95,3.27c-.03,1.8-1.3,3.26-2.94,3.26ZM21.76,16.88c-1.62,0-2.94-1.46-2.94-3.26s1.28-3.27,2.94-3.27,2.96,1.47,2.94,3.27c-.03,1.8-1.3,3.26-2.94,3.26Z"/>
  </g>
</svg>