<?xml version="1.0" encoding="UTF-8"?>
<svg id="Layer_2" data-name="Layer 2" xmlns="http://www.w3.org/2000/svg" viewBox="0 0 51.66 51.66">
  <defs>
    <style>
      .cls-1 {
        fill: #37f9e2;
        stroke-width: 0px;
      }
    </style>
  </defs>
  <g id="Artwork">
    <path class="cls-1" d="M45.61,12.11h-6.74c.69-1.19,1.09-2.57,1.09-4.04,0-4.45-3.62-8.07-8.07-8.07-2.41,0-4.57,1.06-6.05,2.74-1.48-1.68-3.64-2.74-6.05-2.74-4.45,0-8.07,3.62-8.07,8.07,0,1.47.4,2.85,1.09,4.04h-6.74c-3.34,0-6.05,2.72-6.05,6.05v9.69h4.04v17.76c0,3.34,2.72,6.05,6.05,6.05h31.48c3.34,0,6.05-2.72,6.05-6.05v-17.76h4.04v-9.69c0-3.34-2.72-6.05-6.05-6.05ZM23.81,47.62h-13.72c-1.11,0-2.02-.91-2.02-2.02v-17.76h15.74v19.78ZM23.81,23.81H4.04v-5.65c0-1.11.91-2.02,2.02-2.02h17.76v7.67ZM23.81,12.11h-4.04c-2.23,0-4.04-1.81-4.04-4.04s1.81-4.04,4.04-4.04,4.04,1.81,4.04,4.04v4.04ZM27.85,8.07c0-2.23,1.81-4.04,4.04-4.04s4.04,1.81,4.04,4.04-1.81,4.04-4.04,4.04h-4.04v-4.04ZM43.59,45.61c0,1.11-.91,2.02-2.02,2.02h-13.72v-19.78h15.74v17.76ZM47.62,23.81h-19.78v-7.67h17.76c1.11,0,2.02.91,2.02,2.02v5.65Z"/>
  </g>
</svg>