<?xml version="1.0" encoding="UTF-8"?>
<svg id="Layer_2" data-name="Layer 2" xmlns="http://www.w3.org/2000/svg" viewBox="0 0 54.39 40.72">
  <defs>
    <style>
      .cls-1 {
        fill: #21e2c8;
        stroke-width: 0px;
      }
    </style>
  </defs>
  <g id="Artwork">
    <path class="cls-1" d="M51.32,29.25l-22.04-12.77v-.66c0-.9.52-1.75,1.36-2.2,2.45-1.32,3.9-3.88,3.8-6.66C34.3,3.21,31.24.15,27.47,0c-2-.07-3.87.64-5.31,2.02-1.43,1.38-2.22,3.24-2.22,5.23,0,1.15.94,2.09,2.09,2.09s2.09-.94,2.09-2.09c0-.84.33-1.63.94-2.21.61-.58,1.42-.9,2.25-.85,1.59.06,2.88,1.35,2.94,2.94.05,1.18-.57,2.26-1.61,2.82-2.19,1.18-3.55,3.44-3.55,5.88v.66L3.06,29.25c-1.89,1.09-3.06,3.13-3.06,5.32,0,3.39,2.76,6.15,6.14,6.15h42.1c3.39,0,6.14-2.76,6.14-6.15,0-2.18-1.17-4.22-3.06-5.32M50.2,34.57c0,1.08-.88,1.96-1.96,1.96H6.14c-1.08,0-1.96-.88-1.96-1.96,0-.7.37-1.35.98-1.7l22.03-12.77,22.03,12.77c.6.35.98,1,.98,1.7"/>
  </g>
</svg>