<?xml version="1.0" encoding="UTF-8"?>
<svg id="Layer_2" data-name="Layer 2" xmlns="http://www.w3.org/2000/svg" xmlns:xlink="http://www.w3.org/1999/xlink" viewBox="0 0 169.66 38.01">
  <defs>
    <style>
      .cls-1 {
        fill: url(#linear-gradient);
        stroke: #000;
        stroke-width: .07px;
      }

      .cls-2 {
        fill: #fff;
        stroke-width: 0px;
      }
    </style>
    <linearGradient id="linear-gradient" x1="17.53" y1="2788.6" x2="17.53" y2="2750.59" gradientTransform="translate(0 2788.63) scale(1 -1)" gradientUnits="userSpaceOnUse">
      <stop offset="0" stop-color="#37f9e2"/>
      <stop offset="1" stop-color="#209385"/>
    </linearGradient>
  </defs>
  <g id="Artwork">
    <g>
      <path class="cls-2" d="M55.06,8.82h4.33v20.37h-4.33v-4.28h-8.69v4.28h-4.33V8.82h4.33v12.25h8.69v-12.25Z"/>
      <path class="cls-2" d="M81.71,23.83c0,.84.17,5.36-5.96,5.36h-6.72c-6.13,0-5.93-4.51-5.93-5.36v-11.87h4.01v11.87c0,.18.06,1.66,2.3,1.66h5.99c2.24,0,2.27-1.48,2.27-1.66v-11.87h4.04v11.87h0Z"/>
      <path class="cls-2" d="M102.84,16.85v7.48h-.03c-.03,1.45-.61,4.86-5.96,4.86h-11.45V8.82h4.36v3.14h7.09c5.38,0,5.96,3.46,5.96,4.89h.03ZM96.51,25.49c2.24,0,2.27-1.48,2.27-1.66v-6.52c0-.17-.03-1.66-2.27-1.66l-6.74.03v9.78l6.74.03Z"/>
      <path class="cls-2" d="M123.57,18.33h-4.3v-1.02c0-.18-.06-1.45-1.98-1.63l-2.33-.03-3.87.03h-.03c-.81.09-.99.87-.2,1.19l9.68,3.84c4.42,1.78,3.28,8.27-1.45,8.47h-6.48c-5.78-.06-6.25-3.7-6.25-5.01v-1.37h4.3l.03,1.02c0,.18.03,1.45,1.95,1.63l2.33.03,3.84-.03h.03c.84-.09.99-.9.23-1.19l-9.71-3.84c-4.56-1.8-3.23-8.47,1.8-8.47h6.16c5.76.06,6.25,3.7,6.25,5.01v1.37Z"/>
      <path class="cls-2" d="M145.88,29.19l-1.31-4.28h-9.91l-1.31,4.28h-4.56l6.57-20.37h4.27l-3.78,12.25h7.53l-3.75-12.25h4.39l6.57,20.37h-4.71,0Z"/>
      <path class="cls-2" d="M169.66,12.66h-5.76v12.69h5.76v3.84h-15.87v-3.84h5.78v-12.69h-5.78v-3.84h15.87v3.84Z"/>
      <path class="cls-1" d="M27.84.04l7.18,37.94H.04L7.22.04h20.62Z"/>
      <path class="cls-2" d="M19.01,3.37h6.66l5.95,31.27h-6.66l-1.22-6.57h-12.38l-1.24,6.57H3.46L9.41,3.37h6.66l-3.57,18.8h10.1l-3.58-18.8Z"/>
    </g>
  </g>
</svg>