<?xml version="1.0" encoding="UTF-8"?>
<svg id="Layer_2" data-name="Layer 2" xmlns="http://www.w3.org/2000/svg" viewBox="0 0 28.8 28.8">
  <defs>
    <style>
      .cls-1 {
        fill: #fff;
        stroke-width: 0px;
      }
    </style>
  </defs>
  <g id="Artwork">
    <g>
      <path class="cls-1" d="M22.03,5.14c-.93,0-1.69.76-1.69,1.69s.76,1.69,1.69,1.69,1.69-.76,1.69-1.69-.76-1.69-1.69-1.69h0Z"/>
      <path class="cls-1" d="M14.52,18.95c-2.51,0-4.54-2.04-4.54-4.54s2.04-4.54,4.54-4.54,4.54,2.04,4.54,4.54-2.04,4.54-4.54,4.54h0ZM14.52,7.31c-3.91,0-7.09,3.18-7.09,7.09s3.18,7.09,7.09,7.09,7.09-3.18,7.09-7.09-3.18-7.09-7.09-7.09h0Z"/>
      <path class="cls-1" d="M8.65,2.71c-3.28,0-5.94,2.66-5.94,5.94v11.5c0,3.28,2.67,5.94,5.94,5.94h11.5c3.28,0,5.94-2.67,5.94-5.94v-11.5c0-3.28-2.67-5.94-5.94-5.94h-11.5ZM20.15,28.8h-11.5c-4.77,0-8.65-3.88-8.65-8.65v-11.5C0,3.88,3.88,0,8.65,0h11.5c4.77,0,8.65,3.88,8.65,8.65v11.5c0,4.77-3.88,8.65-8.65,8.65h0Z"/>
    </g>
  </g>
</svg>