<?xml version="1.0" encoding="UTF-8"?>
<svg id="Layer_2" data-name="Layer 2" xmlns="http://www.w3.org/2000/svg" viewBox="0 0 28.06 28.06">
  <defs>
    <style>
      .cls-1 {
        fill: #fff;
        stroke-width: 0px;
      }
    </style>
  </defs>
  <g id="Artwork">
    <path class="cls-1" d="M26.29,0H1.78C.8,0,0,.8,0,1.78v24.51c0,.98.8,1.77,1.78,1.77h24.51c.98,0,1.77-.79,1.77-1.77V1.78c0-.98-.79-1.78-1.77-1.78ZM8.31,24.09h-4.2v-13.49h4.2v13.49ZM6.21,8.75c-1.34,0-2.43-1.09-2.43-2.43s1.09-2.43,2.43-2.43,2.44,1.09,2.44,2.43-1.09,2.43-2.44,2.43ZM24.03,24.09h-4.19v-6.56c0-1.57-.03-3.58-2.18-3.58s-2.52,1.71-2.52,3.47v6.67h-4.19v-13.49h4.02v1.84h.06c.56-1.06,1.93-2.18,3.97-2.18,4.25,0,5.03,2.8,5.03,6.43v7.4Z"/>
  </g>
</svg>