<?xml version="1.0" encoding="UTF-8"?>
<svg id="Layer_2" data-name="Layer 2" xmlns="http://www.w3.org/2000/svg" viewBox="0 0 61.02 62.69">
  <defs>
    <style>
      .cls-1 {
        fill: #37f9e2;
        stroke-width: 0px;
      }
    </style>
  </defs>
  <g id="Artwork">
    <g id="E3YXKf">
      <g>
        <path class="cls-1" d="M34.72,59.97h4.6c.01-.13.03-.25.03-.36,0-5.24,0-10.48,0-15.72,0-.98.43-1.42,1.39-1.42,2.22,0,4.44,0,6.66,0,.9,0,1.43.53,1.43,1.43,0,5.29,0,10.57,0,15.86,0,.06,0,.12.01.2h2.7c0-.11.03-.23.03-.35,0-7.87,0-15.74,0-23.61,0-.17,0-.33.01-.5.05-.69.56-1.18,1.25-1.18,2.34,0,4.68,0,7.02,0,.61,0,1.08.45,1.15,1.06.02.15.02.3.02.45,0,8.46,0,16.92,0,25.37,0,1-.46,1.46-1.47,1.46-19.3,0-38.6,0-57.91.02-1.08,0-1.67-.62-1.65-1.65.05-2.43,0-4.86.02-7.29.05-5.51,2.7-9.41,7.51-11.91,1.79-.93,3.74-1.33,5.77-1.33,2.78,0,5.56,0,8.34,0,6.59.02,12.28,5.09,12.97,11.64.17,1.6.09,3.23.11,4.84.01.98,0,1.96,0,2.99ZM9.69,59.96h15.41c0-.17,0-.32,0-.47,0-1.25,0-2.51,0-3.76,0-.82.54-1.37,1.3-1.37.76,0,1.31.57,1.32,1.37,0,.98,0,1.96,0,2.95,0,.42,0,.84,0,1.28h4.3c0-2.4.14-4.77-.03-7.13-.38-5.39-5.03-9.61-10.42-9.63-2.75,0-5.5,0-8.25,0-.36,0-.72.02-1.08.06-5.41.52-9.52,5.03-9.54,10.45,0,1.83,0,3.66,0,5.48,0,.25,0,.5,0,.77h4.35c0-.18,0-.34,0-.51,0-1.21-.02-2.42,0-3.62,0-.3.08-.64.22-.9.29-.5.9-.68,1.47-.51.58.17.94.65.94,1.29,0,1.4,0,2.8,0,4.24ZM58.34,59.96v-22.98h-4.11v22.98h4.11ZM41.99,45.11v14.84h4.18v-14.84h-4.18Z"/>
        <path class="cls-1" d="M32.51,10.84C32.54,4.87,37.46-.02,43.41,0c6.09.03,10.99,4.98,10.96,11.08-.03,5.93-5.06,10.82-11.09,10.77-5.97-.05-10.81-4.99-10.78-11.01ZM42.36,5.15c-.47.29-.88.46-1.2.75-1.95,1.75-1.41,4.75,1.03,5.73.57.23,1.17.39,1.76.59.42.15.74.4.83.87.12.59-.15,1.13-.7,1.38-.59.27-1.3.11-1.65-.43-.17-.26-.26-.57-.34-.87-.11-.4-.33-.67-.72-.8-.79-.26-1.49.42-1.36,1.35.15,1.05.71,1.89,1.61,2.4.55.31.79.61.79,1.25,0,.63.51,1,1.13.97.62-.03,1.02-.45,1.04-1.08,0-.15-.03-.31.01-.45.05-.14.15-.33.27-.37.63-.23,1.13-.63,1.51-1.18,1.2-1.76.58-4.04-1.36-4.91-.63-.28-1.31-.46-1.96-.68-.47-.16-.81-.46-.89-.98-.1-.68.31-1.3.96-1.43.74-.16,1.46.27,1.65.99.04.15.06.3.1.44.14.48.57.77,1.06.75.47-.02.9-.32.94-.82.04-.45,0-.94-.16-1.36-.38-.97-1.12-1.62-2.12-1.98,0-.27,0-.53,0-.78-.02-.67-.47-1.15-1.09-1.16-.62,0-1.09.45-1.13,1.12-.02.27,0,.54,0,.72Z"/>
        <path class="cls-1" d="M17.37,36.79c-5.91-.11-10.23-4.59-10.08-10.55.13-5.49,4.93-9.85,10.37-9.7,5.48.15,9.95,4.78,9.84,10.29-.11,5.54-4.7,10.06-10.12,9.96ZM24.78,26.68c.02-4.02-3.34-7.42-7.35-7.43-4.03-.01-7.42,3.31-7.45,7.28-.03,4.21,3.22,7.53,7.39,7.54,4.08.01,7.39-3.29,7.41-7.39Z"/>
        <path class="cls-1" d="M56.54,23.59c-.92,0-1.73,0-2.54,0-.72,0-1.25-.46-1.33-1.11-.09-.8.44-1.44,1.24-1.45,1.96-.02,3.93-.02,5.89,0,.75,0,1.21.5,1.21,1.24,0,1.92,0,3.84,0,5.75,0,.79-.58,1.37-1.32,1.38-.76,0-1.31-.58-1.31-1.42,0-.74,0-1.48,0-2.22,0-.02-.03-.05-.07-.11-.57.55-1.12,1.08-1.68,1.62-6.28,6.04-13.55,10.54-21.59,13.84-.65.27-1.31.53-1.99.75-.52.17-.99,0-1.34-.42-.33-.41-.44-.91-.15-1.35.21-.31.56-.59.91-.75,2.25-1.03,4.54-1.95,6.76-3.05,6.34-3.15,12.02-7.22,16.95-12.32.09-.1.18-.2.36-.39Z"/>
      </g>
    </g>
  </g>
</svg>