<?xml version="1.0" encoding="UTF-8"?>
<svg id="Layer_2" data-name="Layer 2" xmlns="http://www.w3.org/2000/svg" viewBox="0 0 44.7 35.03">
  <defs>
    <style>
      .cls-1 {
        fill: #fff;
        stroke-width: 0px;
      }
    </style>
  </defs>
  <g id="Artwork">
    <g>
      <path class="cls-1" d="M7.26,26.73c.27-.27.64-.43,1.03-.43h35.67c.65,0,.98.79.52,1.25l-7.05,7.05c-.27.27-.64.43-1.03.43H.73c-.65,0-.98-.79-.52-1.25l7.05-7.05Z"/>
      <path class="cls-1" d="M7.26.43c.28-.27.65-.43,1.03-.43h35.67c.65,0,.98.79.52,1.25l-7.05,7.05c-.27.27-.64.43-1.03.43H.73c-.65,0-.98-.79-.52-1.25L7.26.43Z"/>
      <path class="cls-1" d="M37.43,13.5c-.27-.27-.64-.43-1.03-.43H.73c-.65,0-.98.79-.52,1.25l7.05,7.05c.27.27.64.43,1.03.43h35.67c.65,0,.98-.79.52-1.25l-7.05-7.05Z"/>
    </g>
  </g>
</svg>