<?xml version="1.0" encoding="UTF-8"?>
<svg id="Layer_2" data-name="Layer 2" xmlns="http://www.w3.org/2000/svg" viewBox="0 0 46.62 54.33">
  <defs>
    <style>
      .cls-1 {
        fill: #21e2c8;
        stroke-width: 0px;
      }
    </style>
  </defs>
  <g id="Artwork">
    <g>
      <path class="cls-1" d="M42.73,36.87h-11.64c-2.14,0-3.88,1.74-3.88,3.88v9.7c0,2.14,1.74,3.88,3.88,3.88h11.64c2.14,0,3.88-1.74,3.88-3.88v-9.7c0-2.14-1.74-3.88-3.88-3.88M31.09,50.45v-9.7h3.88v3.88c0,1.07.87,1.94,1.94,1.94s1.94-.87,1.94-1.94v-3.88h3.88v9.7h-11.64Z"/>
      <path class="cls-1" d="M34.4,19.97c-.75-.76-1.98-.77-2.74-.01,0,0,0,0-.01.01l-5.82,5.82c-2.9-1.39-6.38-.16-7.76,2.74-1.39,2.9-.16,6.38,2.74,7.77,2.9,1.39,6.38.16,7.76-2.74.76-1.59.76-3.44,0-5.03l5.82-5.82c.76-.75.77-1.97.02-2.74M23.32,32.99c-1.07,0-1.94-.87-1.94-1.94s.87-1.94,1.94-1.94,1.94.87,1.94,1.94-.87,1.94-1.94,1.94"/>
      <path class="cls-1" d="M42.73,14.38l.56.58c.76.76,1.98.77,2.74.01,0,0,0,0,.01-.01.76-.76.77-1.98.01-2.74,0,0,0,0-.01-.01l-3.88-3.88c-.76-.76-1.99-.76-2.76,0-.76.76-.76,1.99,0,2.76l.58.56-1.65,1.65c-2.83-2.4-6.2-4.09-9.82-4.93.4-.79.62-1.66.62-2.54,0-3.22-2.61-5.82-5.82-5.82s-5.82,2.61-5.82,5.82c0,.88.22,1.76.62,2.54-3.62.84-6.99,2.53-9.82,4.93l-1.65-1.65.58-.56c.76-.76.76-1.99,0-2.76-.76-.76-1.99-.76-2.76,0l-3.88,3.88c-.76.75-.77,1.98-.01,2.74,0,0,0,0,.01.01.76.76,1.98.77,2.74.01,0,0,0,0,.01-.01l.56-.58,1.65,1.65c-8.35,9.78-7.18,24.48,2.6,32.83,3.67,3.13,8.23,5.05,13.04,5.48h.17c1.07.05,1.98-.78,2.03-1.85.05-1.07-.78-1.98-1.85-2.03-10.67-.98-18.53-10.42-17.56-21.09.98-10.67,10.42-18.53,21.09-17.56,9.96.91,17.6,9.24,17.64,19.24,0,1.07.87,1.94,1.94,1.94s1.94-.87,1.94-1.94c0-5.51-1.95-10.83-5.53-15.02l1.65-1.65ZM21.38,5.82c0-1.07.87-1.94,1.94-1.94s1.94.87,1.94,1.94-.87,1.94-1.94,1.94-1.94-.87-1.94-1.94"/>
    </g>
  </g>
</svg>