<?xml version="1.0" encoding="UTF-8"?>
<svg id="Layer_2" data-name="Layer 2" xmlns="http://www.w3.org/2000/svg" viewBox="0 0 31.23 31.22">
  <defs>
    <style>
      .cls-1 {
        fill: #fff;
        stroke-width: 0px;
      }
    </style>
  </defs>
  <g id="Artwork">
    <path class="cls-1" d="M15.61,0C6.99,0,0,6.99,0,15.61s6.99,15.61,15.61,15.61,15.61-6.99,15.61-15.61S24.24,0,15.61,0ZM23.89,9.59c-.05.7-.45,3.15-.85,5.8-.6,3.75-1.25,7.85-1.25,7.85,0,0-.1,1.15-.95,1.35-.85.2-2.25-.7-2.5-.9-.2-.15-3.75-2.4-5.05-3.5-.35-.3-.75-.9.05-1.6,1.8-1.65,3.95-3.7,5.25-5,.6-.6,1.2-2-1.3-.3-3.55,2.45-7.05,4.75-7.05,4.75,0,0-.8.5-2.3.05-1.5-.45-3.25-1.05-3.25-1.05,0,0-1.2-.75.85-1.55,0,0,8.65-3.55,11.65-4.8,1.15-.5,5.05-2.1,5.05-2.1,0,0,1.8-.7,1.65,1Z"/>
  </g>
</svg>